<svg id="logo" xmlns="http://www.w3.org/2000/svg" viewBox="0 0 139.6 161.07"><defs><style>.cls-1{fill:#231815;}.cls-2{fill:#d2bc92;}.cls-3{fill:#4caf8e;}.cls-4{fill:#9bc7a2;}.cls-5{fill:#ed6d46;}</style></defs><path class="cls-1" d="M13.67,119.4c1.33-.2,1.62,2,.19,2.16a.59.59,0,0,0-.19,0c0,.71,0,1.64,0,2.3a14.15,14.15,0,0,1,9.71-3.5,5.73,5.73,0,0,1,5.4,5.49,7,7,0,0,1-3,6.1,15,15,0,0,1-4.72,2.31c-1,.28-2.1.59-2.38-.6a1,1,0,0,1,.82-1.22,11.92,11.92,0,0,0,5-2.13A5,5,0,0,0,26.62,126a3.52,3.52,0,0,0-3.46-3.52c-2.48-.26-6.26.82-9.55,4.09v7.95a1,1,0,0,1-2,0v-5.85c-.85,1.17-1.48,2.22-2.53,3.52a1,1,0,0,1-1.47.23c-.94-.68-.23-1.59.45-2.47a53.65,53.65,0,0,1,3.61-4.26v-3.87c-.23,0-2.39.26-2.7.26a1.1,1.1,0,0,1-.06-2.19s1.22-.08,2.76-.25v-4.46a1,1,0,0,1,2.07,0Z"/><path class="cls-1" d="M54.23,134.37a4.32,4.32,0,0,1-3.58.26c-1.07-.37-2.1-1-1.59-2a.94.94,0,0,1,1.37-.4,2.88,2.88,0,0,0,2.75.31c.91-.54,1-1.84,1.08-2.61.17-1.65.46-4.8-.25-6.28-.4-.85-1.57-1-2.39-.94a56.54,56.54,0,0,1-6.39,11.05c-.63.86-1.37,2-2.42,1.23a1.09,1.09,0,0,1-.14-1.57,52.88,52.88,0,0,0,6.65-10.57c-1.82.18-3,.37-3.72.49a1,1,0,0,1-1.2-.8c-.19-1.28,1.11-1.33,2-1.42,1.14-.11,2.93-.25,3.78-.31a33,33,0,0,0,1.53-4.94,1,1,0,0,1,1.31-.8c1.14.34.83,1.42.54,2.33-.43,1.36-1,2.93-1.16,3.3a3.67,3.67,0,0,1,3.46,2.1c.91,2,.71,5.14.46,7.36C56.19,131.56,55.94,133.38,54.23,134.37Zm10.35-6.14a.93.93,0,0,1-.57-1.76,11.09,11.09,0,0,0-3.58-3.86,1,1,0,0,1-.29-1.36c.66-.89,1.51-.26,2.19.22a10,10,0,0,1,1.93,1.82,8.9,8.9,0,0,1,1.48,2.25C66.54,127.21,65.66,128,64.58,128.23Z"/><path class="cls-1" d="M95.51,135.68a30.67,30.67,0,0,1-3.49.25c-4.43,0-9.35-1.25-8.81-5.56.2-1.65,1-3.5,4.41-5.66a19.77,19.77,0,0,1-.8-5c-.06-1.45-.06-2.44,0-4.83a1.14,1.14,0,0,1,2.27,0s0,3,0,4.75a16.33,16.33,0,0,0,.51,4,35.46,35.46,0,0,1,5.37-2.35c1-.35,2-.77,2.38.39a1,1,0,0,1-.62,1.28c-3,1.08-6.42,2.3-8.81,4.06s-2.53,2.93-2.61,3.61c-.29,2.7,3.89,3.24,6.73,3.16a23.85,23.85,0,0,0,4.38-.54,1,1,0,0,1,1.27.88C97.84,135.37,96.65,135.54,95.51,135.68Z"/><path class="cls-1" d="M123.81,115.31c.31-.8.62-2,1.79-1.57.51.2.79.72.45,1.57,0-.06-.79,2.19-.79,2.19a40.14,40.14,0,0,0,4.09-.72,1,1,0,0,1,1.22.66c.31,1.16-1,1.31-1.59,1.42-1.28.2-3.61.57-4.52.62-.54,1.28-1.87,5.23-2.47,7-.06.2.09.28.23.2a17.49,17.49,0,0,1,3.52-1.22,9.78,9.78,0,0,1,5.14.17c2.65,1,4,3.41,3,6.16a5.88,5.88,0,0,1-3,2.84,12.9,12.9,0,0,1-5.35,1.14c-1,0-2.24,0-2.13-1.22a1,1,0,0,1,1.08-.85,12.32,12.32,0,0,0,5.57-.94c2.81-1.28,2.79-4.15.11-5.2a7.53,7.53,0,0,0-4-.17,16.74,16.74,0,0,0-4.43,1.68c-1.19.59-2.47-.32-1.91-2,0,.11.69-2.48,2.45-7.53-1.14,0-1,.05-2.39,0-.62,0-1.76,0-1.7-1.17a.9.9,0,0,1,1-.88,35.79,35.79,0,0,0,3.78.06Z"/><path class="cls-1" d="M40.26,154.37c-.29.88-1.11.58-1.24.09L37.88,150a.13.13,0,0,0-.13-.08.13.13,0,0,0-.12.08l-1.21,4.49a.63.63,0,0,1-1.24-.05l-1.64-5.28a.48.48,0,0,1,.31-.63.44.44,0,0,1,.58.31l1.24,4.68a.14.14,0,0,0,.13.08.16.16,0,0,0,.12-.08l1.22-4.61a.66.66,0,0,1,1.25,0l1.14,4.59a.14.14,0,0,0,.12.09.14.14,0,0,0,.12-.09l1.32-4.65a.44.44,0,0,1,.59-.33.44.44,0,0,1,.31.58Z"/><path class="cls-1" d="M51.08,153.72a.7.7,0,0,0,.15.49.42.42,0,0,1-.45.69c-.29-.1-.44-.39-.55-.8-1.49,1.55-3.75.92-3.94-.6-.15-1.17.78-2.35,2.63-2.35h1.27c0-.19,0-.38,0-.56a2.35,2.35,0,0,0-.05-.59,1,1,0,0,0-.9-.84,1.7,1.7,0,0,0-1.87.86c-.32.6-1.17.17-.88-.35a2.64,2.64,0,0,1,2.87-1.3c1.36.19,1.7,1.09,1.7,2.46Zm-.88-1.8H48.92c-.77,0-1.74.46-1.69,1.4a1.06,1.06,0,0,0,1.21.89A2.12,2.12,0,0,0,50.2,153Z"/><path class="cls-1" d="M60.58,154.24a.45.45,0,0,1-.15.64.44.44,0,0,1-.64-.16l-1.89-3.23-1.16,1.06v1.95a.46.46,0,0,1-.91,0v-8.08a.46.46,0,0,1,.91,0v5.09l2.89-2.88a.45.45,0,0,1,.66,0,.43.43,0,0,1,0,.65h0l-1.76,1.62Z"/><path class="cls-1" d="M69.77,153.72a.7.7,0,0,0,.15.49.42.42,0,0,1-.45.69c-.29-.1-.44-.39-.54-.8-1.5,1.55-3.76.92-4-.6-.15-1.17.78-2.35,2.63-2.35h1.27c0-.19,0-.38,0-.56a2.93,2.93,0,0,0,0-.59,1,1,0,0,0-.91-.84,1.7,1.7,0,0,0-1.87.86c-.32.6-1.17.17-.88-.35a2.64,2.64,0,0,1,2.87-1.3c1.37.19,1.7,1.09,1.7,2.46Zm-.88-1.8H67.61c-.77,0-1.74.46-1.69,1.4a1.06,1.06,0,0,0,1.21.89A2.1,2.1,0,0,0,68.89,153Z"/><path class="cls-1" d="M76.59,153.33a.71.71,0,0,0,.64.81,2.17,2.17,0,0,0,.9-.19.42.42,0,0,1,.55.27.41.41,0,0,1-.24.55,2.4,2.4,0,0,1-2.06,0,1.79,1.79,0,0,1-.72-1.67v-3.75h-1a.41.41,0,0,1,0-.81h1v-1.38a.47.47,0,1,1,.93,0v1.38h.94a.41.41,0,0,1,0,.81h-.94Z"/><path class="cls-1" d="M86.21,155c-1.89,0-2.92-1.31-2.92-3.34s1.1-3.31,2.94-3.31,2.85,1.26,2.85,3.31S88.05,155,86.21,155Zm0-5.87c-1.29,0-2,1-2,2.53s.73,2.55,2,2.55,1.93-1,1.93-2.55S87.53,149.16,86.23,149.16Z"/><path class="cls-1" d="M98.52,150.69a.45.45,0,0,1-.59-.33,1.46,1.46,0,0,0-1-1.13c-2.77-.77-3.17,4.05-1.19,4.85a1.58,1.58,0,0,0,2.16-1,.45.45,0,0,1,.58-.34.47.47,0,0,1,.34.59A2.52,2.52,0,0,1,95.94,155a2.83,2.83,0,0,1-2.16-1.82,4.2,4.2,0,0,1,.23-3.45,2.8,2.8,0,0,1,2.58-1.35A2.4,2.4,0,0,1,98.81,150,.49.49,0,0,1,98.52,150.69Z"/><path class="cls-1" d="M108.26,154.53a.43.43,0,0,1-.46.46.44.44,0,0,1-.48-.47v-3.14c0-.19,0-.41,0-.63,0-.68-.23-1.4-1.09-1.46a3.22,3.22,0,0,0-2.16.8v4.41a.46.46,0,0,1-.91,0v-8.26a.46.46,0,1,1,.91,0v3.13a3.3,3.3,0,0,1,2.43-.93,1.79,1.79,0,0,1,1.33.69,3.12,3.12,0,0,1,.45,1.72Z"/><path class="cls-1" d="M113.6,147.36a.73.73,0,1,1,0-1.45.73.73,0,1,1,0,1.45Zm.49,7.14a.49.49,0,0,1-1,0v-5.57a.49.49,0,0,1,1,0Z"/><path class="cls-2" d="M123.45,43.1H35.09l2.68-5.27A2.68,2.68,0,1,0,33,35.4l-3.92,7.7H20a2.68,2.68,0,0,0,0,5.36h6.35L24,53.09a2.68,2.68,0,0,0,1.18,3.6,2.63,2.63,0,0,0,1.21.29,2.71,2.71,0,0,0,2.39-1.46l3.58-7.06h91.09a2.68,2.68,0,0,0,0-5.36Z"/><path class="cls-3" d="M121.77,58.4h-.9l.37-.75a2.67,2.67,0,1,0-4.77-2.42l-1.61,3.17H43.77l.38-.75a2.68,2.68,0,1,0-4.78-2.42L37.76,58.4H35.38a2.67,2.67,0,0,0-.32,5.32l-8,15.63h-3a2.68,2.68,0,0,0,0,5.36h.26l-.38.74a2.68,2.68,0,0,0,1.18,3.6,2.64,2.64,0,0,0,1.21.3,2.7,2.7,0,0,0,2.39-1.47l1.61-3.17h71.09l-.38.74a2.68,2.68,0,1,0,4.78,2.43l1.61-3.17h2.92a2.68,2.68,0,0,0,0-5.36h-.2l7.93-15.6h3.63a2.68,2.68,0,1,0,0-5.35ZM104.2,79.35H33.11l7.94-15.6h71.08Z"/><path class="cls-4" d="M125.05,30.31a2.68,2.68,0,0,1-1.94-.83L116,22l-7.17,7.52a2.69,2.69,0,0,1-1.94.83h0a2.69,2.69,0,0,1-1.94-.83l-10.52-11-10.51,11a2.69,2.69,0,0,1-1.94.83H33.24a2.68,2.68,0,1,1,0-5.35H80.78L92.45,12.71a2.75,2.75,0,0,1,3.87,0l10.52,11L114,16.23A2.66,2.66,0,0,1,116,15.4h0a2.65,2.65,0,0,1,1.93.83L127,25.79a2.66,2.66,0,0,1-.1,3.78A2.62,2.62,0,0,1,125.05,30.31Z"/><path class="cls-5" d="M64.17,12.68a6.69,6.69,0,1,0-6.69,6.69A6.7,6.7,0,0,0,64.17,12.68Z"/></svg>